<svg width="1478" height="1478" viewBox="0 0 1478 1478" fill="none" xmlns="http://www.w3.org/2000/svg">
<g clip-path="url(#clip0_330_2)">
<path d="M1484 666V781L739 723.5L1484 666Z" fill="#C9FFA7"/>
<path d="M682 -21L797 -21L739.5 724L682 -21Z" fill="#C9FFA7"/>
<path d="M797 1477H682L739.5 723L797 1477Z" fill="#C9FFA7"/>
<path d="M-72 -6.68262L9.31728 -87.9999L739.761 723.761L-72 -6.68262Z" fill="#C9FFA7"/>
<path d="M328.353 -22.0459L432.579 -70.647L739.979 724.632L328.353 -22.0459Z" fill="#C9FFA7"/>
<path d="M1065.77 1559.34L1169.99 1510.74L739.979 724.632L1065.77 1559.34Z" fill="#C9FFA7"/>
<path d="M1046.51 -71L1150.74 -22.3989L739.113 724.279L1046.51 -71Z" fill="#C9FFA7"/>
<path d="M311.08 1506.14L415.305 1554.74L739.113 724.279L311.08 1506.14Z" fill="#C9FFA7"/>
<path d="M1485.98 312L1534.58 416.225L739.301 723.626L1485.98 312Z" fill="#C9FFA7"/>
<path d="M-97.5786 1050.42L-48.9775 1154.65L739.301 723.626L-97.5786 1050.42Z" fill="#C9FFA7"/>
<path d="M1527.58 1154.14L1576.18 1049.91L739.3 723.113L1527.58 1154.14Z" fill="#C9FFA7"/>
<path d="M-129.74 381.317L-81.1385 277.092L739.3 723.113L-129.74 381.317Z" fill="#C9FFA7"/>
<path d="M1470.1 -88L1551.42 -6.68272L739.659 723.761L1470.1 -88Z" fill="#C9FFA7"/>
<path d="M9.31726 1535.42L-72 1454.1L739.761 723.659L9.31726 1535.42Z" fill="#C9FFA7"/>
<path d="M1551.42 1454.1L1470.1 1535.42L739.659 723.659L1551.42 1454.1Z" fill="#C9FFA7"/>
<path d="M-5 781L-5 666L740 723.5L-5 781Z" fill="#C9FFA7"/>
</g>
<defs>
<clipPath id="clip0_330_2">
<rect width="1478" height="1478" fill="white"/>
</clipPath>
</defs>
</svg>
